<svg width="101" height="101" viewBox="0 0 101 101" fill="none" xmlns="http://www.w3.org/2000/svg">
<path d="M37.2497 8.06998C45.2677 3.38004 55.1787 3.32391 63.2493 7.92274L80.6068 17.8135C88.6774 22.4123 93.6815 30.9674 93.7341 40.2562L93.8473 60.2336C93.8999 69.5224 88.993 78.1336 80.975 82.8236L63.7306 92.9103C55.7126 97.6002 45.8016 97.6563 37.731 93.0575L20.3734 83.1668C12.3028 78.5679 7.29871 70.0128 7.24611 60.7241L7.13297 40.7466C7.08037 31.4579 11.9873 22.8466 20.0053 18.1567L37.2497 8.06998Z" fill="#DBEAFE" fill-opacity="0.5"/>
<path d="M63.0017 8.35716L80.3593 18.2479C88.2747 22.7583 93.1825 31.1489 93.2341 40.259L93.3473 60.2365C93.3989 69.3466 88.5863 77.7922 80.7225 82.392L63.4781 92.4787C55.6143 97.0784 45.8939 97.1335 37.9785 92.6231L20.621 82.7323C12.7056 78.2219 7.79769 69.8314 7.7461 60.7212L7.63297 40.7438C7.58137 31.6337 12.3939 23.188 20.2577 18.5883L37.5021 8.50157C45.3659 3.90182 55.0863 3.84677 63.0017 8.35716Z" stroke="#2873D8" stroke-opacity="0.6"/>
<g style="mix-blend-mode:multiply">
<g filter="url(#filter0_d_2_9)">
<path d="M19.9872 40.0647V61.8829H16.0348V40.0647H19.9872ZM24.2673 61.8829V40.0647H32.4491C34.1252 40.0647 35.5315 40.3559 36.6678 40.9383C37.8113 41.5207 38.6742 42.3374 39.2566 43.3886C39.8461 44.4326 40.1408 45.6506 40.1408 47.0427C40.1408 48.4418 39.8425 49.6563 39.2459 50.6861C38.6565 51.7089 37.7864 52.5008 36.6359 53.0619C35.4853 53.6158 34.0719 53.8928 32.3958 53.8928H26.5684V50.6116H31.8631C32.8432 50.6116 33.6458 50.4766 34.2708 50.2067C34.8958 49.9297 35.3575 49.5285 35.6557 49.0029C35.9611 48.4702 36.1138 47.8168 36.1138 47.0427C36.1138 46.2685 35.9611 45.608 35.6557 45.0611C35.3504 44.5072 34.8852 44.0881 34.2602 43.804C33.6352 43.5128 32.829 43.3672 31.8418 43.3672H28.2197V61.8829H24.2673ZM35.5386 51.9965L40.9398 61.8829H36.5293L31.2239 51.9965H35.5386ZM62.4544 47.4262H58.47C58.3564 46.7728 58.1469 46.194 57.8415 45.6897C57.5361 45.1783 57.1561 44.7451 56.7016 44.39C56.247 44.0349 55.7285 43.7685 55.1462 43.591C54.5709 43.4063 53.9494 43.314 53.2818 43.314C52.0957 43.314 51.0446 43.6123 50.1284 44.2089C49.2122 44.7984 48.4949 45.6648 47.9764 46.8083C47.4579 47.9447 47.1987 49.3332 47.1987 50.9738C47.1987 52.6428 47.4579 54.0491 47.9764 55.1925C48.502 56.3289 49.2193 57.1883 50.1284 57.7707C51.0446 58.3459 52.0922 58.6336 53.2712 58.6336C53.9246 58.6336 54.5354 58.5484 55.1035 58.3779C55.6788 58.2003 56.1937 57.9411 56.6483 57.6002C57.1099 57.2593 57.497 56.8403 57.8095 56.3431C58.1291 55.8459 58.3493 55.2778 58.47 54.6386L62.4544 54.6599C62.3053 55.6968 61.9821 56.6698 61.4849 57.5789C60.9949 58.488 60.3521 59.2905 59.5567 59.9866C58.7612 60.6755 57.8308 61.2153 56.7655 61.6059C55.7001 61.9894 54.5176 62.1812 53.2179 62.1812C51.3003 62.1812 49.5886 61.7373 48.0829 60.8495C46.5773 59.9617 45.3912 58.6797 44.5247 57.0036C43.6582 55.3275 43.225 53.3175 43.225 50.9738C43.225 48.6229 43.6618 46.613 44.5354 44.944C45.4089 43.2678 46.5986 41.9859 48.1043 41.0981C49.6099 40.2103 51.3145 39.7664 53.2179 39.7664C54.4324 39.7664 55.5616 39.9368 56.6057 40.2778C57.6497 40.6187 58.5801 41.1194 59.3969 41.7799C60.2136 42.4333 60.8848 43.2359 61.4104 44.1876C61.943 45.1322 62.291 46.2117 62.4544 47.4262Z" fill="#1E293B"/>
</g>
<g filter="url(#filter1_d_2_9)">
<path d="M74.7159 62.1812C73.125 62.1812 71.7081 61.9077 70.4652 61.3609C69.2294 60.8069 68.2529 60.0469 67.5355 59.081C66.8253 58.108 66.4595 56.9859 66.4382 55.7145H71.0831C71.1115 56.2472 71.2855 56.716 71.6051 57.1208C71.9318 57.5185 72.3651 57.8275 72.9049 58.0476C73.4446 58.2678 74.0519 58.3779 74.7266 58.3779C75.4297 58.3779 76.0512 58.2536 76.5909 58.005C77.1307 57.7565 77.5533 57.412 77.8587 56.9717C78.1641 56.5313 78.3168 56.0235 78.3168 55.4482C78.3168 54.8658 78.1534 54.3509 77.8267 53.9035C77.5071 53.4489 77.0455 53.0938 76.4418 52.8381C75.8452 52.5824 75.135 52.4546 74.3111 52.4546H72.2763V49.0668H74.3111C75.0071 49.0668 75.6215 48.9461 76.1542 48.7046C76.6939 48.4631 77.113 48.1293 77.4113 47.7032C77.7095 47.2699 77.8587 46.7657 77.8587 46.1904C77.8587 45.6435 77.7273 45.1641 77.4645 44.7522C77.2088 44.3332 76.8466 44.0065 76.3779 43.7721C75.9162 43.5377 75.3765 43.4205 74.7586 43.4205C74.1336 43.4205 73.5618 43.5342 73.0434 43.7614C72.5249 43.9816 72.1094 44.2976 71.7969 44.7096C71.4844 45.1215 71.3175 45.6045 71.2962 46.1584H66.875C66.8963 44.9013 67.255 43.7934 67.951 42.8346C68.647 41.8758 69.5845 41.1265 70.7635 40.5867C71.9496 40.0398 73.2884 39.7664 74.7799 39.7664C76.2855 39.7664 77.603 40.0398 78.7323 40.5867C79.8615 41.1336 80.7387 41.8722 81.3637 42.8026C81.9958 43.7259 82.3083 44.7628 82.3012 45.9134C82.3083 47.135 81.9283 48.1542 81.1613 48.9709C80.4013 49.7877 79.4105 50.3062 78.189 50.5263V50.6968C79.7941 50.9028 81.0157 51.4603 81.8537 52.3694C82.6989 53.2714 83.1179 54.4006 83.1108 55.7572C83.1179 57.0001 82.7593 58.1045 82.0348 59.0704C81.3175 60.0363 80.3267 60.7962 79.0625 61.3502C77.7983 61.9042 76.3495 62.1812 74.7159 62.1812Z" fill="#6D28D9"/>
</g>
</g>
<defs>
<filter id="filter0_d_2_9" x="12.0348" y="39.7664" width="54.4196" height="30.4148" filterUnits="userSpaceOnUse" color-interpolation-filters="sRGB">
<feFlood flood-opacity="0" result="BackgroundImageFix"/>
<feColorMatrix in="SourceAlpha" type="matrix" values="0 0 0 0 0 0 0 0 0 0 0 0 0 0 0 0 0 0 127 0" result="hardAlpha"/>
<feOffset dy="4"/>
<feGaussianBlur stdDeviation="2"/>
<feComposite in2="hardAlpha" operator="out"/>
<feColorMatrix type="matrix" values="0 0 0 0 0 0 0 0 0 0 0 0 0 0 0 0 0 0 0.25 0"/>
<feBlend mode="normal" in2="BackgroundImageFix" result="effect1_dropShadow_2_9"/>
<feBlend mode="normal" in="SourceGraphic" in2="effect1_dropShadow_2_9" result="shape"/>
</filter>
<filter id="filter1_d_2_9" x="62.4382" y="39.7664" width="24.6833" height="30.4148" filterUnits="userSpaceOnUse" color-interpolation-filters="sRGB">
<feFlood flood-opacity="0" result="BackgroundImageFix"/>
<feColorMatrix in="SourceAlpha" type="matrix" values="0 0 0 0 0 0 0 0 0 0 0 0 0 0 0 0 0 0 127 0" result="hardAlpha"/>
<feOffset dy="4"/>
<feGaussianBlur stdDeviation="2"/>
<feComposite in2="hardAlpha" operator="out"/>
<feColorMatrix type="matrix" values="0 0 0 0 0 0 0 0 0 0 0 0 0 0 0 0 0 0 0.25 0"/>
<feBlend mode="normal" in2="BackgroundImageFix" result="effect1_dropShadow_2_9"/>
<feBlend mode="normal" in="SourceGraphic" in2="effect1_dropShadow_2_9" result="shape"/>
</filter>
</defs>
</svg>
